<svg width="161" height="48" viewBox="0 0 161 48" fill="none" xmlns="http://www.w3.org/2000/svg">
<rect x="0.261719" width="160.148" height="48" rx="5" fill="black"/>
<path d="M34.0065 25.0176C34.0223 23.791 34.3481 22.5884 34.9536 21.5216C35.5591 20.4548 36.4245 19.5585 37.4695 18.9161C36.8057 17.968 35.9299 17.1878 34.9118 16.6374C33.8937 16.087 32.7613 15.7815 31.6045 15.7453C29.1368 15.4863 26.7445 17.222 25.487 17.222C24.2052 17.222 22.2691 15.7711 20.1843 15.814C18.8358 15.8575 17.5215 16.2497 16.3696 16.9522C15.2177 17.6547 14.2674 18.6436 13.6113 19.8226C10.7693 24.7431 12.8892 31.9747 15.6116 35.952C16.9737 37.8997 18.5656 40.0752 20.6485 39.9981C22.6868 39.9135 23.4481 38.6983 25.9085 38.6983C28.3461 38.6983 29.0603 39.998 31.1855 39.949C33.3727 39.9135 34.7507 37.9927 36.065 36.0267C37.0437 34.6389 37.7968 33.1052 38.2964 31.4822C37.0257 30.9448 35.9413 30.0452 35.1784 28.8956C34.4156 27.746 34.008 26.3973 34.0065 25.0176Z" fill="white"/>
<path d="M29.9935 13.1295C31.1861 11.6979 31.7736 9.8578 31.6313 8C29.8094 8.19136 28.1264 9.06213 26.9177 10.4388C26.3268 11.1114 25.8742 11.8938 25.5858 12.7413C25.2974 13.5889 25.1789 14.485 25.237 15.3784C26.1483 15.3878 27.0499 15.1903 27.8738 14.8007C28.6977 14.4112 29.4225 13.8398 29.9935 13.1295Z" fill="white"/>
<path d="M60.5905 31.8874H54.4033L52.9175 36.1744H50.2969L56.1572 20.3137H58.88L64.7403 36.1744H62.075L60.5905 31.8874ZM55.0441 29.9092H59.9484L57.5308 22.9518H57.4631L55.0441 29.9092Z" fill="white"/>
<path d="M77.3976 30.3931C77.3976 33.9866 75.4292 36.2953 72.4589 36.2953C71.7064 36.3338 70.9581 36.1644 70.2996 35.8066C69.6411 35.4488 69.099 34.9171 68.7354 34.2722H68.6792V39.9998H66.25V24.6107H68.6013V26.534H68.646C69.0263 25.8922 69.5776 25.3632 70.2411 25.0032C70.9046 24.6433 71.6556 24.4658 72.4142 24.4897C75.4177 24.4897 77.3976 26.8097 77.3976 30.3931ZM74.9008 30.3931C74.9008 28.052 73.6626 26.5128 71.7734 26.5128C69.9174 26.5128 68.669 28.0844 68.669 30.3931C68.669 32.7231 69.9174 34.2835 71.7734 34.2835C73.6626 34.2835 74.9008 32.7555 74.9008 30.3931Z" fill="white"/>
<path d="M90.421 30.3931C90.421 33.9866 88.4527 36.2953 85.4823 36.2953C84.7299 36.3338 83.9815 36.1644 83.323 35.8066C82.6645 35.4488 82.1224 34.9171 81.7588 34.2722H81.7026V39.9998H79.2734V24.6107H81.6247V26.534H81.6694C82.0497 25.8922 82.601 25.3632 83.2645 25.0032C83.928 24.6433 84.679 24.4658 85.4376 24.4897C88.4412 24.4897 90.421 26.8096 90.421 30.3931ZM87.9242 30.3931C87.9242 28.052 86.686 26.5128 84.7968 26.5128C82.9408 26.5128 81.6924 28.0844 81.6924 30.3931C81.6924 32.7231 82.9408 34.2835 84.7968 34.2835C86.686 34.2835 87.9242 32.7555 87.9242 30.3931H87.9242Z" fill="white"/>
<path d="M99.0296 31.7553C99.2096 33.3281 100.773 34.3608 102.91 34.3608C104.958 34.3608 106.431 33.328 106.431 31.9099C106.431 30.6788 105.542 29.9416 103.439 29.4365L101.335 28.9413C98.3544 28.2378 96.9706 26.8758 96.9706 24.6656C96.9706 21.929 99.4113 20.0493 102.877 20.0493C106.307 20.0493 108.658 21.929 108.737 24.6656H106.285C106.138 23.0827 104.799 22.1273 102.842 22.1273C100.886 22.1273 99.5465 23.094 99.5465 24.5009C99.5465 25.6222 100.402 26.2821 102.494 26.7872L104.282 27.2162C107.613 27.9858 108.996 29.293 108.996 31.613C108.996 34.5803 106.577 36.4387 102.73 36.4387C99.1304 36.4387 96.7 34.6239 96.543 31.7551L99.0296 31.7553Z" fill="white"/>
<path d="M114.239 21.874V24.6106H116.49V26.4903H114.239V32.8652C114.239 33.8555 114.69 34.317 115.679 34.317C115.946 34.3125 116.213 34.2942 116.478 34.2621V36.1306C116.034 36.2118 115.582 36.2486 115.129 36.2403C112.733 36.2403 111.799 35.361 111.799 33.1184V26.4903H110.078V24.6106H111.799V21.874H114.239Z" fill="white"/>
<path d="M117.793 30.3932C117.793 26.7548 119.986 24.4685 123.406 24.4685C126.837 24.4685 129.02 26.7547 129.02 30.3932C129.02 34.0415 126.848 36.3178 123.406 36.3178C119.964 36.3178 117.793 34.0415 117.793 30.3932ZM126.545 30.3932C126.545 27.8973 125.374 26.4243 123.406 26.4243C121.437 26.4243 120.268 27.9085 120.268 30.3932C120.268 32.899 121.437 34.3608 123.406 34.3608C125.374 34.3608 126.544 32.899 126.544 30.3932H126.545Z" fill="white"/>
<path d="M131.023 24.6108H133.34V26.579H133.396C133.553 25.9643 133.922 25.4211 134.44 25.0406C134.959 24.6601 135.595 24.4656 136.243 24.4898C136.523 24.4888 136.802 24.5186 137.075 24.5784V26.7986C136.722 26.693 136.353 26.6446 135.984 26.6551C135.631 26.6411 135.279 26.7019 134.953 26.8333C134.626 26.9647 134.332 27.1637 134.092 27.4164C133.851 27.6692 133.67 27.9698 133.559 28.2976C133.449 28.6254 133.413 28.9727 133.453 29.3156V36.1745H131.023L131.023 24.6108Z" fill="white"/>
<path d="M148.275 32.778C147.948 34.8772 145.856 36.3178 143.179 36.3178C139.736 36.3178 137.6 34.0639 137.6 30.448C137.6 26.8209 139.748 24.4685 143.077 24.4685C146.351 24.4685 148.41 26.6662 148.41 30.1724V30.9856H140.052V31.1291C140.013 31.5546 140.068 31.9834 140.212 32.3868C140.356 32.7902 140.586 33.159 140.887 33.4688C141.188 33.7786 141.553 34.0222 141.958 34.1835C142.363 34.3449 142.798 34.4202 143.235 34.4045C143.809 34.457 144.385 34.3271 144.878 34.0341C145.37 33.741 145.753 33.3005 145.968 32.778L148.275 32.778ZM140.063 29.3267H145.98C146.002 28.9441 145.942 28.5611 145.805 28.202C145.669 27.8428 145.457 27.5151 145.185 27.2396C144.912 26.964 144.584 26.7464 144.221 26.6005C143.859 26.4547 143.469 26.3836 143.077 26.3918C142.681 26.3895 142.289 26.4638 141.923 26.6103C141.557 26.7569 141.224 26.9728 140.944 27.2457C140.664 27.5186 140.442 27.8429 140.291 28.2001C140.14 28.5573 140.062 28.9402 140.063 29.3267V29.3267Z" fill="white"/>
<path d="M54.741 8.37559C55.2503 8.33988 55.7613 8.41506 56.2373 8.5957C56.7132 8.77634 57.1422 9.05795 57.4933 9.4202C57.8443 9.78246 58.1088 10.2163 58.2674 10.6905C58.4261 11.1647 58.4751 11.6674 58.4109 12.1624C58.4109 14.5971 57.0642 15.9966 54.741 15.9966H51.9238V8.37559H54.741ZM53.1352 14.9188H54.6057C54.9696 14.9401 55.3338 14.8818 55.6717 14.7482C56.0097 14.6146 56.3129 14.409 56.5593 14.1464C56.8057 13.8839 56.989 13.571 57.096 13.2304C57.203 12.8899 57.231 12.5303 57.1778 12.1779C57.2271 11.8269 57.1963 11.4695 57.0877 11.1315C56.979 10.7935 56.7952 10.4831 56.5494 10.2226C56.3036 9.96217 56.0018 9.75806 55.6658 9.62493C55.3298 9.49179 54.9678 9.43293 54.6057 9.45257H53.1352V14.9188Z" fill="white"/>
<path d="M59.7788 13.1184C59.7418 12.7404 59.786 12.3591 59.9087 11.9988C60.0313 11.6385 60.2297 11.3073 60.491 11.0263C60.7524 10.7454 61.0709 10.5209 61.4263 10.3673C61.7816 10.2136 62.1659 10.1343 62.5545 10.1343C62.943 10.1343 63.3273 10.2136 63.6827 10.3673C64.038 10.5209 64.3566 10.7454 64.6179 11.0263C64.8793 11.3073 65.0776 11.6385 65.2003 11.9988C65.3229 12.3591 65.3672 12.7404 65.3302 13.1184C65.3679 13.4967 65.3242 13.8786 65.2018 14.2394C65.0795 14.6003 64.8813 14.9321 64.6198 15.2137C64.3584 15.4952 64.0396 15.7201 63.6839 15.8741C63.3282 16.028 62.9435 16.1076 62.5545 16.1076C62.1654 16.1076 61.7807 16.028 61.425 15.8741C61.0693 15.7201 60.7505 15.4952 60.4891 15.2137C60.2277 14.9321 60.0294 14.6003 59.9071 14.2394C59.7848 13.8786 59.741 13.4967 59.7788 13.1184ZM64.1354 13.1184C64.1354 11.8717 63.5622 11.1427 62.5564 11.1427C61.5467 11.1427 60.9787 11.8717 60.9787 13.1184C60.9787 14.375 61.5467 15.0985 62.5564 15.0985C63.5623 15.0985 64.1354 14.37 64.1354 13.1184H64.1354Z" fill="white"/>
<path d="M72.7106 15.9964H71.5056L70.2891 11.7606H70.1972L68.9859 15.9964H67.7923L66.1699 10.2451H67.3481L68.4025 14.6337H68.4893L69.6994 10.2451H70.8138L72.0239 14.6337H72.1158L73.1651 10.2451H74.3267L72.7106 15.9964Z" fill="white"/>
<path d="M75.6914 10.2451H76.8096V11.1587H76.8964C77.0437 10.8306 77.292 10.5555 77.6069 10.3718C77.9217 10.1882 78.2874 10.105 78.6529 10.1341C78.9392 10.113 79.2268 10.1552 79.4942 10.2575C79.7617 10.3598 80.0021 10.5196 80.1978 10.7251C80.3934 10.9305 80.5393 11.1763 80.6245 11.4443C80.7097 11.7123 80.7322 11.9956 80.6901 12.2732V15.9963H79.5285V12.5582C79.5285 11.634 79.1175 11.1743 78.2584 11.1743C78.064 11.1655 77.8699 11.1978 77.6894 11.2691C77.509 11.3404 77.3464 11.449 77.2129 11.5875C77.0794 11.7259 76.9782 11.8909 76.916 12.0712C76.8539 12.2514 76.8324 12.4427 76.853 12.6318V15.9964H75.6914L75.6914 10.2451Z" fill="white"/>
<path d="M82.5391 8H83.7007V15.9964H82.5391V8Z" fill="white"/>
<path d="M85.3178 13.1185C85.2808 12.7405 85.3251 12.3591 85.4478 11.9989C85.5705 11.6386 85.7689 11.3073 86.0302 11.0263C86.2916 10.7454 86.6102 10.5209 86.9656 10.3673C87.3209 10.2136 87.7052 10.1343 88.0938 10.1343C88.4824 10.1343 88.8667 10.2136 89.2221 10.3673C89.5775 10.5209 89.896 10.7454 90.1574 11.0263C90.4188 11.3073 90.6172 11.6386 90.7399 11.9989C90.8626 12.3591 90.9068 12.7405 90.8699 13.1185C90.9075 13.4968 90.8638 13.8787 90.7414 14.2396C90.619 14.6004 90.4207 14.9322 90.1593 15.2138C89.8978 15.4953 89.579 15.7202 89.2233 15.8742C88.8676 16.0281 88.4829 16.1076 88.0938 16.1076C87.7048 16.1076 87.32 16.0281 86.9643 15.8742C86.6086 15.7202 86.2898 15.4953 86.0284 15.2138C85.7669 14.9322 85.5686 14.6004 85.4463 14.2396C85.3239 13.8787 85.2801 13.4968 85.3178 13.1185ZM89.6744 13.1185C89.6744 11.8718 89.1013 11.1428 88.0954 11.1428C87.0857 11.1428 86.5177 11.8718 86.5177 13.1185C86.5177 14.3751 87.0858 15.0986 88.0954 15.0986C89.1013 15.0986 89.6744 14.3701 89.6744 13.1185H89.6744Z" fill="white"/>
<path d="M92.0918 14.3701C92.0918 13.3348 92.8807 12.738 94.281 12.6532L95.8753 12.5634V12.067C95.8753 11.4595 95.4643 11.1165 94.6703 11.1165C94.0218 11.1165 93.5725 11.3491 93.4436 11.7558H92.319C92.4377 10.7679 93.3887 10.1343 94.7239 10.1343C96.1995 10.1343 97.0318 10.8521 97.0318 12.067V15.9966H95.9136V15.1883H95.8217C95.6351 15.4782 95.3732 15.7146 95.0626 15.8732C94.752 16.0319 94.4039 16.1071 94.0538 16.0913C93.8067 16.1164 93.5569 16.0907 93.3207 16.0157C93.0844 15.9407 92.8668 15.8182 92.682 15.656C92.4971 15.4939 92.3491 15.2957 92.2474 15.0742C92.1458 14.8527 92.0928 14.6128 92.0918 14.3701ZM95.8753 13.8786V13.3978L94.438 13.4876C93.6274 13.5406 93.2598 13.81 93.2598 14.3171C93.2598 14.8347 93.7193 15.1359 94.3512 15.1359C94.5364 15.1542 94.7234 15.136 94.9012 15.0822C95.0789 15.0284 95.2438 14.9403 95.386 14.823C95.5282 14.7057 95.6448 14.5616 95.7289 14.3994C95.8129 14.2372 95.8627 14.0601 95.8753 13.8786Z" fill="white"/>
<path d="M98.5586 13.1183C98.5586 11.301 99.5147 10.1497 101.002 10.1497C101.37 10.1332 101.735 10.2193 102.054 10.3979C102.374 10.5766 102.635 10.8405 102.807 11.1587H102.894V8H104.055V15.9964H102.942V15.0877H102.85C102.665 15.4039 102.395 15.6645 102.069 15.8413C101.743 16.0182 101.374 16.1046 101.002 16.0912C99.5045 16.0913 98.5586 14.94 98.5586 13.1183ZM99.7585 13.1183C99.7585 14.3382 100.347 15.0722 101.331 15.0722C102.31 15.0722 102.915 14.3276 102.915 13.1233C102.915 11.9246 102.304 11.1694 101.331 11.1694C100.353 11.1694 99.7585 11.9084 99.7585 13.1183H99.7585Z" fill="white"/>
<path d="M108.861 13.1184C108.824 12.7404 108.868 12.3591 108.991 11.9988C109.113 11.6385 109.312 11.3073 109.573 11.0263C109.834 10.7454 110.153 10.5209 110.508 10.3673C110.864 10.2136 111.248 10.1343 111.637 10.1343C112.025 10.1343 112.409 10.2136 112.765 10.3673C113.12 10.5209 113.439 10.7454 113.7 11.0263C113.961 11.3073 114.16 11.6385 114.282 11.9988C114.405 12.3591 114.449 12.7404 114.412 13.1184C114.45 13.4967 114.406 13.8786 114.284 14.2394C114.162 14.6003 113.963 14.9321 113.702 15.2137C113.44 15.4952 113.122 15.7201 112.766 15.8741C112.41 16.028 112.026 16.1076 111.637 16.1076C111.247 16.1076 110.863 16.028 110.507 15.8741C110.151 15.7201 109.833 15.4952 109.571 15.2137C109.31 14.9321 109.111 14.6003 108.989 14.2394C108.867 13.8786 108.823 13.4967 108.861 13.1184ZM113.217 13.1184C113.217 11.8717 112.644 11.1427 111.638 11.1427C110.629 11.1427 110.061 11.8717 110.061 13.1184C110.061 14.375 110.629 15.0985 111.638 15.0985C112.644 15.0985 113.217 14.37 113.217 13.1184Z" fill="white"/>
<path d="M115.971 10.2451H117.089V11.1587H117.176C117.323 10.8306 117.571 10.5555 117.886 10.3718C118.201 10.1882 118.567 10.105 118.932 10.1341C119.219 10.113 119.506 10.1552 119.774 10.2575C120.041 10.3598 120.281 10.5196 120.477 10.7251C120.673 10.9305 120.819 11.1763 120.904 11.4443C120.989 11.7123 121.011 11.9956 120.969 12.2732V15.9963H119.808V12.5582C119.808 11.634 119.397 11.1743 118.538 11.1743C118.343 11.1655 118.149 11.1978 117.969 11.2691C117.788 11.3404 117.626 11.449 117.492 11.5875C117.359 11.7259 117.257 11.8909 117.195 12.0712C117.133 12.2514 117.112 12.4427 117.132 12.6318V15.9964H115.971V10.2451Z" fill="white"/>
<path d="M127.533 8.81323V10.2713H128.808V11.2274H127.533V14.1847C127.533 14.7872 127.787 15.051 128.365 15.051C128.513 15.0505 128.661 15.0417 128.808 15.0248V15.9702C128.599 16.0067 128.388 16.0261 128.176 16.0282C126.884 16.0282 126.37 15.5842 126.37 14.4753V11.2273H125.436V10.2713H126.37V8.81323H127.533Z" fill="white"/>
<path d="M130.395 8H131.546V11.1694H131.638C131.792 10.8382 132.047 10.5615 132.369 10.3772C132.69 10.1928 133.061 10.1097 133.432 10.1391C133.717 10.124 134.002 10.1704 134.267 10.2752C134.531 10.38 134.768 10.5405 134.962 10.7453C135.156 10.9501 135.301 11.1941 135.387 11.46C135.473 11.7258 135.498 12.0069 135.46 12.2832V15.9964H134.297V12.5632C134.297 11.6446 133.859 11.1793 133.038 11.1793C132.839 11.1633 132.638 11.1902 132.45 11.2579C132.262 11.3257 132.091 11.4328 131.95 11.5716C131.809 11.7105 131.701 11.8779 131.633 12.062C131.565 12.2461 131.538 12.4425 131.556 12.6374V15.9964H130.395L130.395 8Z" fill="white"/>
<path d="M142.233 14.4435C142.075 14.9692 141.733 15.4238 141.267 15.728C140.801 16.0322 140.24 16.1665 139.682 16.1074C139.295 16.1174 138.909 16.0448 138.553 15.8947C138.197 15.7446 137.878 15.5206 137.62 15.2381C137.361 14.9557 137.168 14.6216 137.055 14.2591C136.942 13.8966 136.911 13.5143 136.964 13.1389C136.912 12.7622 136.944 12.3791 137.057 12.0156C137.17 11.652 137.361 11.3163 137.619 11.0314C137.876 10.7465 138.193 10.5189 138.548 10.3641C138.903 10.2093 139.288 10.1309 139.677 10.1341C141.315 10.1341 142.303 11.2274 142.303 13.0334V13.4295H138.147V13.4931C138.129 13.7042 138.156 13.9166 138.227 14.1168C138.297 14.317 138.41 14.5006 138.558 14.6557C138.705 14.8108 138.884 14.9341 139.084 15.0176C139.283 15.1012 139.498 15.1431 139.714 15.1407C139.992 15.1733 140.274 15.1244 140.523 15.0003C140.772 14.8761 140.978 14.6823 141.115 14.4435L142.233 14.4435ZM138.147 12.5901H141.12C141.134 12.397 141.108 12.2031 141.041 12.0209C140.974 11.8386 140.869 11.6719 140.733 11.5316C140.597 11.3913 140.432 11.2804 140.249 11.2061C140.066 11.1318 139.869 11.0957 139.671 11.1002C139.47 11.0977 139.271 11.1346 139.085 11.2086C138.898 11.2826 138.729 11.3922 138.587 11.5311C138.445 11.6699 138.333 11.8352 138.258 12.017C138.182 12.1989 138.144 12.3937 138.147 12.5901H138.147Z" fill="white"/>
</svg>
