<svg width="25" height="28" viewBox="0 0 25 28" fill="none" xmlns="http://www.w3.org/2000/svg">
<path d="M12.5753 0.544922C16.237 0.544922 19.2474 3.4223 19.4002 7.06825H19.3645C19.3688 7.17423 19.3484 7.27976 19.305 7.3766H19.5183C21.1811 7.3766 22.9224 8.52911 23.6206 11.3114L23.6964 11.6397L24.747 20.1036C25.503 25.502 22.5495 27.7723 18.5205 27.8684L18.2504 27.8716H6.92352C2.82896 27.8716 -0.326226 26.3795 0.367512 20.4709L0.414819 20.1036L1.47746 11.6397C2.00146 8.64344 3.76057 7.46165 5.45552 7.38105L5.64352 7.3766H5.75033C5.73232 7.2746 5.73232 7.17025 5.75033 7.06825C5.90314 3.4223 8.91354 0.544922 12.5753 0.544922ZM8.60202 11.9255C7.93511 11.9255 7.39447 12.482 7.39447 13.1684C7.39447 13.8548 7.93511 14.4113 8.60202 14.4113C9.26893 14.4113 9.80957 13.8548 9.80957 13.1684L9.80017 13.0125C9.72565 12.3997 9.21763 11.9255 8.60202 11.9255ZM16.5115 11.9255C15.8446 11.9255 15.3039 12.482 15.3039 13.1684C15.3039 13.8548 15.8446 14.4113 16.5115 14.4113C17.1784 14.4113 17.719 13.8548 17.719 13.1684C17.719 12.482 17.1784 11.9255 16.5115 11.9255ZM12.5217 2.32441C9.89272 2.32441 7.76151 4.4483 7.76151 7.06825C7.77952 7.17025 7.77952 7.2746 7.76151 7.3766H17.3414C17.3034 7.27814 17.2832 7.17373 17.2819 7.06825C17.2819 4.4483 15.1507 2.32441 12.5217 2.32441Z" fill="#D31B11"/>
</svg>
