<svg width="165" height="48" viewBox="0 0 165 48" fill="none" xmlns="http://www.w3.org/2000/svg">
<rect x="0.40918" width="164.33" height="48" rx="5" fill="black"/>
<path d="M25.7778 23.2822L12.5312 37.3412C12.5325 37.3437 12.5325 37.3475 12.5337 37.3499C12.9406 38.8765 14.334 40 15.9888 40C16.6507 40 17.2715 39.8208 17.804 39.5073L17.8463 39.4824L32.7563 30.8791L25.7778 23.2822Z" fill="#EA4335"/>
<path d="M39.1785 20.8881L39.166 20.8794L32.7288 17.1481L25.4766 23.6016L32.7549 30.8774L39.1573 27.1835C40.2796 26.5764 41.0422 25.3932 41.0422 24.0296C41.0422 22.6735 40.2908 21.4965 39.1785 20.8881Z" fill="#FBBC04"/>
<path d="M12.5311 10.6578C12.4515 10.9514 12.4092 11.26 12.4092 11.5785V36.4219C12.4092 36.7404 12.4515 37.0489 12.5324 37.3413L26.233 23.6419L12.5311 10.6578Z" fill="#4285F4"/>
<path d="M25.8761 24L32.7314 17.1459L17.8388 8.51146C17.2976 8.18673 16.6656 8.00011 15.99 8.00011C14.3353 8.00011 12.9393 9.12607 12.5325 10.6539C12.5325 10.6551 12.5312 10.6564 12.5312 10.6576L25.8761 24Z" fill="#34A853"/>
<path d="M60.5409 11.9725C60.5409 12.958 60.2492 13.7424 59.6647 14.328C59.0003 15.0242 58.1359 15.3723 57.0728 15.3723C56.0532 15.3723 55.1877 15.0195 54.4762 14.3127C53.7624 13.6071 53.4072 12.731 53.4072 11.6867C53.4072 10.6413 53.7624 9.76631 54.4762 9.05953C55.1877 8.35393 56.0532 7.99995 57.0728 7.99995C57.5773 7.99995 58.0618 8.09874 58.5205 8.2963C58.9803 8.49387 59.3484 8.75612 59.6248 9.08423L59.0038 9.70516C58.537 9.14773 57.8937 8.86784 57.0728 8.86784C56.3296 8.86784 55.6875 9.12891 55.1454 9.65106C54.6032 10.1744 54.3327 10.8518 54.3327 11.6867C54.3327 12.5205 54.6032 13.1991 55.1454 13.7212C55.6875 14.2445 56.3296 14.5044 57.0728 14.5044C57.8607 14.5044 58.517 14.2422 59.0438 13.7165C59.3848 13.3743 59.5812 12.8992 59.6342 12.2877H57.0728V11.4398H60.4915C60.5244 11.6244 60.5409 11.802 60.5409 11.9725Z" fill="white"/>
<path d="M60.5409 11.9725C60.5409 12.958 60.2492 13.7424 59.6647 14.328C59.0003 15.0242 58.1359 15.3723 57.0728 15.3723C56.0532 15.3723 55.1877 15.0195 54.4762 14.3127C53.7624 13.6071 53.4072 12.731 53.4072 11.6867C53.4072 10.6413 53.7624 9.76631 54.4762 9.05953C55.1877 8.35393 56.0532 7.99995 57.0728 7.99995C57.5773 7.99995 58.0618 8.09874 58.5205 8.2963C58.9803 8.49387 59.3484 8.75612 59.6248 9.08423L59.0038 9.70516C58.537 9.14773 57.8937 8.86784 57.0728 8.86784C56.3296 8.86784 55.6875 9.12891 55.1454 9.65106C54.6032 10.1744 54.3327 10.8518 54.3327 11.6867C54.3327 12.5205 54.6032 13.1991 55.1454 13.7212C55.6875 14.2445 56.3296 14.5044 57.0728 14.5044C57.8607 14.5044 58.517 14.2422 59.0438 13.7165C59.3848 13.3743 59.5812 12.8992 59.6342 12.2877H57.0728V11.4398H60.4915C60.5244 11.6244 60.5409 11.802 60.5409 11.9725Z" fill="white"/>
<path d="M65.9613 9.02554H62.7485V11.2623H65.6462V12.1102H62.7485V14.347H65.9613V15.2148H61.8418V8.15882H65.9613V9.02554Z" fill="white"/>
<path d="M65.9613 9.02554H62.7485V11.2623H65.6462V12.1102H62.7485V14.347H65.9613V15.2148H61.8418V8.15882H65.9613V9.02554Z" fill="white"/>
<path d="M69.7849 15.2146H68.8782V9.0253H66.9072V8.15858H71.7559V9.0253H69.7849V15.2146Z" fill="white"/>
<path d="M69.7849 15.2146H68.8782V9.0253H66.9072V8.15858H71.7559V9.0253H69.7849V15.2146Z" fill="white"/>
<path d="M75.2637 8.15858H76.1704V15.2146H75.2637V8.15858Z" fill="white"/>
<path d="M80.1921 15.2146H79.2854V9.0253H77.3145V8.15858H82.1631V9.0253H80.1921V15.2146Z" fill="white"/>
<path d="M80.1921 15.2146H79.2854V9.0253H77.3145V8.15858H82.1631V9.0253H80.1921V15.2146Z" fill="white"/>
<path d="M86.8376 13.7118C87.3598 14.241 87.9984 14.5044 88.7545 14.5044C89.5107 14.5044 90.1493 14.241 90.6714 13.7118C91.1936 13.1826 91.4558 12.5076 91.4558 11.6867C91.4558 10.8659 91.1936 10.1897 90.6714 9.66164C90.1493 9.13244 89.5107 8.86784 88.7545 8.86784C87.9984 8.86784 87.3598 9.13244 86.8376 9.66164C86.3167 10.1897 86.0544 10.8659 86.0544 11.6867C86.0544 12.5076 86.3167 13.1826 86.8376 13.7118ZM91.3417 14.3022C90.6479 15.016 89.7859 15.3723 88.7545 15.3723C87.7232 15.3723 86.8612 15.016 86.1685 14.3022C85.4747 13.5895 85.1289 12.7181 85.1289 11.6867C85.1289 10.6554 85.4747 9.78277 86.1685 9.07011C86.8612 8.35746 87.7232 7.99995 88.7545 7.99995C89.78 7.99995 90.6397 8.35863 91.337 9.07482C92.0332 9.791 92.3813 10.6612 92.3813 11.6867C92.3813 12.7181 92.0344 13.5895 91.3417 14.3022Z" fill="white"/>
<path d="M86.8376 13.7118C87.3598 14.241 87.9984 14.5044 88.7545 14.5044C89.5107 14.5044 90.1493 14.241 90.6714 13.7118C91.1936 13.1826 91.4558 12.5076 91.4558 11.6867C91.4558 10.8659 91.1936 10.1897 90.6714 9.66164C90.1493 9.13244 89.5107 8.86784 88.7545 8.86784C87.9984 8.86784 87.3598 9.13244 86.8376 9.66164C86.3167 10.1897 86.0544 10.8659 86.0544 11.6867C86.0544 12.5076 86.3167 13.1826 86.8376 13.7118ZM91.3417 14.3022C90.6479 15.016 89.7859 15.3723 88.7545 15.3723C87.7232 15.3723 86.8612 15.016 86.1685 14.3022C85.4747 13.5895 85.1289 12.7181 85.1289 11.6867C85.1289 10.6554 85.4747 9.78277 86.1685 9.07011C86.8612 8.35746 87.7232 7.99995 88.7545 7.99995C89.78 7.99995 90.6397 8.35863 91.337 9.07482C92.0332 9.791 92.3813 10.6612 92.3813 11.6867C92.3813 12.7181 92.0344 13.5895 91.3417 14.3022Z" fill="white"/>
<path d="M93.6533 15.2146V8.15858H94.7564L98.1856 13.647H98.2256L98.1856 12.2875V8.15858H99.0935V15.2146H98.1468L94.5588 9.45924H94.52L94.5588 10.8199V15.2146H93.6533Z" fill="white"/>
<path d="M93.6533 15.2146V8.15858H94.7564L98.1856 13.647H98.2256L98.1856 12.2875V8.15858H99.0935V15.2146H98.1468L94.5588 9.45924H94.52L94.5588 10.8199V15.2146H93.6533Z" fill="white"/>
<path d="M130.534 35.2066H132.728V20.5054H130.534V35.2066ZM150.299 25.8009L147.783 32.1749H147.708L145.097 25.8009H142.733L146.648 34.7092L144.417 39.6648H146.705L152.739 25.8009H150.299ZM137.854 33.5367C137.134 33.5367 136.132 33.178 136.132 32.2878C136.132 31.1541 137.38 30.719 138.459 30.719C139.423 30.719 139.878 30.9271 140.464 31.2106C140.293 32.5724 139.121 33.5367 137.854 33.5367ZM138.119 25.4799C136.53 25.4799 134.884 26.1796 134.204 27.7308L136.151 28.5434C136.568 27.7308 137.343 27.465 138.156 27.465C139.291 27.465 140.445 28.1459 140.464 29.3572V29.5077C140.066 29.2807 139.216 28.9409 138.175 28.9409C136.076 28.9409 133.938 30.0945 133.938 32.2501C133.938 34.2176 135.66 35.4853 137.588 35.4853C139.064 35.4853 139.878 34.8232 140.388 34.0471H140.464V35.1819H142.582V29.5453C142.582 26.9358 140.634 25.4799 138.119 25.4799ZM124.557 27.5908H121.436V22.5516H124.557C126.198 22.5516 127.129 23.9099 127.129 25.0706C127.129 26.2102 126.198 27.5908 124.557 27.5908ZM124.501 20.5054H119.243V35.2066H121.436V29.6371H124.501C126.933 29.6371 129.323 27.8754 129.323 25.0706C129.323 22.2659 126.933 20.5054 124.501 20.5054ZM95.8285 33.539C94.3126 33.539 93.0437 32.2701 93.0437 30.5273C93.0437 28.7656 94.3126 27.4767 95.8285 27.4767C97.3256 27.4767 98.4992 28.7656 98.4992 30.5273C98.4992 32.2701 97.3256 33.539 95.8285 33.539ZM98.3487 26.6241H98.2722C97.7795 26.0373 96.8328 25.5069 95.6392 25.5069C93.1378 25.5069 90.8458 27.7037 90.8458 30.5273C90.8458 33.3309 93.1378 35.51 95.6392 35.51C96.8328 35.51 97.7795 34.9796 98.2722 34.3728H98.3487V35.0937C98.3487 37.0071 97.3256 38.0302 95.6768 38.0302C94.3315 38.0302 93.4977 37.0635 93.1566 36.2485L91.2433 37.0447C91.7925 38.3712 93.2519 40 95.6768 40C98.2534 40 100.433 38.4841 100.433 34.7903V25.8092H98.3487V26.6241ZM101.948 35.2066H104.146V20.5042H101.948V35.2066ZM107.385 30.3568C107.329 28.4246 108.882 27.4391 109.999 27.4391C110.872 27.4391 111.61 27.8742 111.856 28.4999L107.385 30.3568ZM114.206 28.6892C113.79 27.572 112.52 25.5069 109.924 25.5069C107.347 25.5069 105.207 27.5332 105.207 30.5085C105.207 33.3121 107.329 35.51 110.17 35.51C112.463 35.51 113.79 34.1082 114.339 33.2933L112.634 32.1561C112.066 32.9898 111.288 33.539 110.17 33.539C109.053 33.539 108.257 33.0275 107.745 32.0243L114.433 29.2572L114.206 28.6892ZM60.9236 27.0416V29.1631H66.0004C65.8487 30.3568 65.4512 31.2282 64.8455 31.8338C64.1058 32.5735 62.9498 33.3885 60.9236 33.3885C57.7966 33.3885 55.3528 30.8683 55.3528 27.7425C55.3528 24.6155 57.7966 22.0965 60.9236 22.0965C62.61 22.0965 63.8412 22.7598 64.7503 23.6124L66.2473 22.1153C64.9772 20.9029 63.292 19.9738 60.9236 19.9738C56.6417 19.9738 53.042 23.4607 53.042 27.7425C53.042 32.0243 56.6417 35.51 60.9236 35.51C63.2344 35.51 64.9772 34.7515 66.3414 33.3309C67.7444 31.9291 68.1795 29.9593 68.1795 28.367C68.1795 27.8742 68.1419 27.4203 68.0654 27.0416H60.9236ZM73.9525 33.539C72.4366 33.539 71.1289 32.2889 71.1289 30.5085C71.1289 28.708 72.4366 27.4767 73.9525 27.4767C75.4672 27.4767 76.7749 28.708 76.7749 30.5085C76.7749 32.2889 75.4672 33.539 73.9525 33.539ZM73.9525 25.5069C71.1854 25.5069 68.931 27.6096 68.931 30.5085C68.931 33.3885 71.1854 35.51 73.9525 35.51C76.7185 35.51 78.9729 33.3885 78.9729 30.5085C78.9729 27.6096 76.7185 25.5069 73.9525 25.5069ZM84.9046 33.539C83.3887 33.539 82.081 32.2889 82.081 30.5085C82.081 28.708 83.3887 27.4767 84.9046 27.4767C86.4205 27.4767 87.727 28.708 87.727 30.5085C87.727 32.2889 86.4205 33.539 84.9046 33.539ZM84.9046 25.5069C82.1387 25.5069 79.8843 27.6096 79.8843 30.5085C79.8843 33.3885 82.1387 35.51 84.9046 35.51C87.6706 35.51 89.925 33.3885 89.925 30.5085C89.925 27.6096 87.6706 25.5069 84.9046 25.5069Z" fill="white"/>
</svg>
