<svg width="1211" height="1140" viewBox="0 0 1211 1140" fill="none" xmlns="http://www.w3.org/2000/svg">
<path d="M399.723 52.0088C434.134 53.0442 467.467 58.923 499.776 69.6537C500.645 69.9421 501.554 70.0919 502.469 70.0919C503.71 70.0919 504.948 70.3444 506.028 70.9556C506.35 71.1378 506.656 71.3214 506.947 71.5054C508.619 72.5641 510.317 73.6305 512.197 74.2465C523.379 77.9084 534.008 82.0656 544.213 87.6186L565.249 96.9297C573.553 101.311 583.518 109.472 589.054 112.813C599.057 118.652 611.992 118.256 621.6 111.788C679.86 72.5732 748.379 51.5156 818.799 52.0088C853.731 52.0088 888.608 56.8921 921.768 67.9011C1126.1 133.626 1199.73 355.448 1138.23 549.338C1103.35 648.418 1046.33 738.845 971.648 812.731C864.747 915.153 747.439 1006.07 621.163 1084.39C612.655 1089.48 602.027 1089.42 593.575 1084.24L592.93 1083.85C466.21 1006.07 348.238 915.153 240.341 812.183C166.159 738.297 109.082 648.418 73.6519 549.338C11.095 355.448 84.7239 133.626 291.272 66.7509C307.327 61.2738 323.879 57.4398 340.487 55.3038C344.911 55.3038 349.325 54.9637 353.715 54.4235C367.051 52.7827 380.322 52.0088 393.633 52.0088H399.723Z" fill="#EBEBEB"/>
<mask id="path-2-inside-1_24_555" fill="white">
<path d="M399.723 52.0088C434.134 53.0442 467.467 58.923 499.776 69.6537C500.645 69.9421 501.554 70.0919 502.469 70.0919C503.71 70.0919 504.948 70.3444 506.028 70.9556C506.35 71.1378 506.656 71.3214 506.947 71.5054C508.619 72.5641 510.317 73.6305 512.197 74.2465C523.379 77.9084 534.008 82.0656 544.213 87.6186L565.249 96.9297C573.553 101.311 583.518 109.472 589.054 112.813C599.057 118.652 611.992 118.256 621.6 111.788C679.86 72.5732 748.379 51.5156 818.799 52.0088C853.731 52.0088 888.608 56.8921 921.768 67.9011C1126.1 133.626 1199.73 355.448 1138.23 549.338C1103.35 648.418 1046.33 738.845 971.648 812.731C864.747 915.153 747.439 1006.07 621.163 1084.39C612.655 1089.48 602.027 1089.42 593.575 1084.24L592.93 1083.85C466.21 1006.07 348.238 915.153 240.341 812.183C166.159 738.297 109.082 648.418 73.6519 549.338C11.095 355.448 84.7239 133.626 291.272 66.7509C307.327 61.2738 323.879 57.4398 340.487 55.3038C344.911 55.3038 349.325 54.9637 353.715 54.4235C367.051 52.7827 380.322 52.0088 393.633 52.0088H399.723Z"/>
</mask>
<path d="M399.723 52.0088L402.216 -30.869L400.97 -30.9065H399.723V52.0088ZM544.213 87.6186L504.582 160.45L507.557 162.068L510.654 163.439L544.213 87.6186ZM565.249 96.9297L603.944 23.597L601.419 22.2647L598.808 21.1091L565.249 96.9297ZM589.054 112.813L546.212 183.802L546.731 184.116L547.255 184.422L589.054 112.813ZM818.799 52.0088L818.218 134.922L818.508 134.924H818.799V52.0088ZM921.768 67.9011L895.643 146.593L896.011 146.715L896.379 146.834L921.768 67.9011ZM1138.23 549.338L1216.44 576.868L1216.87 575.645L1217.26 574.409L1138.23 549.338ZM971.648 812.731L1029.01 872.602L1029.49 872.142L1029.96 871.674L971.648 812.731ZM621.163 1084.39L663.696 1155.57L664.284 1155.22L664.867 1154.86L621.163 1084.39ZM592.93 1083.85L549.557 1154.51L549.588 1154.53L549.618 1154.55L592.93 1083.85ZM240.341 812.183L181.829 870.93L182.456 871.555L183.097 872.167L240.341 812.183ZM73.6519 549.338L-5.25787 574.797L-4.85908 576.033L-4.42178 577.256L73.6519 549.338ZM291.272 66.7509L316.813 145.635L317.43 145.435L318.044 145.225L291.272 66.7509ZM340.487 55.3038V-27.6115H335.177L329.91 -26.9341L340.487 55.3038ZM353.715 54.4235L343.589 -27.8711L353.715 54.4235ZM506.028 70.9556L546.868 -1.20427L506.028 70.9556ZM593.575 1084.24L636.89 1013.54L636.887 1013.54L593.575 1084.24ZM506.947 71.5054L462.595 141.562L506.947 71.5054ZM512.197 74.2465L486.392 153.044L512.197 74.2465ZM621.6 111.788L575.301 43.0039L621.6 111.788ZM499.776 69.6537L525.911 -9.03507L499.776 69.6537ZM397.229 134.887C423.689 135.683 449.054 140.176 473.641 148.342L525.911 -9.03507C485.881 -22.3302 444.579 -29.5944 402.216 -30.869L397.229 134.887ZM465.188 143.116C464.348 142.64 463.482 142.123 462.595 141.562L551.298 1.44915C549.83 0.519764 548.352 -0.364201 546.868 -1.20427L465.188 143.116ZM486.392 153.044C494.805 155.799 500.329 158.136 504.582 160.45L583.843 14.7877C567.686 5.99544 551.954 0.0178413 538.003 -4.55089L486.392 153.044ZM510.654 163.439L531.691 172.75L598.808 21.1091L577.771 11.7981L510.654 163.439ZM526.555 170.262C525.51 169.711 525.319 169.533 526.262 170.151C527.127 170.717 528.317 171.537 530.098 172.805C530.982 173.434 531.852 174.06 532.91 174.82C533.898 175.529 535.088 176.384 536.282 177.228C538.315 178.666 542.064 181.299 546.212 183.802L631.897 41.8241C633.276 42.6567 633.704 43.0167 632.052 41.8478C629.85 40.29 629.766 40.1993 626.282 37.7182C622.086 34.7306 613.507 28.6431 603.944 23.597L526.555 170.262ZM667.9 180.573C712.562 150.51 764.791 134.548 818.218 134.922L819.379 -30.9045C731.967 -31.5167 647.158 -5.36368 575.301 43.0039L667.9 180.573ZM818.799 134.924C846.088 134.924 872.006 138.746 895.643 146.593L947.893 -10.791C905.209 -24.9616 861.374 -30.9065 818.799 -30.9065V134.924ZM896.379 146.834C1045.17 194.694 1111.07 360.74 1059.19 524.267L1217.26 574.409C1288.4 350.157 1207.03 72.558 947.157 -11.0314L896.379 146.834ZM1060.02 521.807C1029.27 609.155 979.007 688.813 913.332 753.788L1029.96 871.674C1113.65 788.877 1177.43 687.682 1216.44 576.868L1060.02 521.807ZM914.285 752.86C811.574 851.268 698.847 938.642 577.459 1013.93L664.867 1154.86C796.032 1073.5 917.921 979.037 1029.01 872.602L914.285 752.86ZM636.887 1013.54L636.241 1013.14L549.618 1154.55L550.264 1154.95L636.887 1013.54ZM636.302 1013.18C514.595 938.482 401.269 851.148 297.585 752.2L183.097 872.167C295.207 979.157 417.825 1073.66 549.557 1154.51L636.302 1013.18ZM298.854 753.436C233.408 688.252 183.011 608.907 151.726 521.419L-4.42178 577.256C35.1541 687.929 98.9091 788.342 181.829 870.93L298.854 753.436ZM152.562 523.878C100.03 361.061 165.303 194.69 316.813 145.635L265.732 -12.1327C4.14505 72.5626 -77.8399 349.836 -5.25787 574.797L152.562 523.878ZM318.044 145.225C328.835 141.544 339.962 138.97 351.065 137.542L329.91 -26.9341C307.797 -24.0899 285.818 -18.9961 264.5 -11.7233L318.044 145.225ZM363.841 136.718C373.672 135.509 383.557 134.924 393.633 134.924V-30.9065C377.086 -30.9065 360.429 -29.9432 343.589 -27.8711L363.841 136.718ZM393.633 134.924H399.723V-30.9065H393.633V134.924ZM340.487 138.219C349.109 138.219 357.009 137.559 363.841 136.718L343.589 -27.8711C341.641 -27.6314 340.712 -27.6115 340.487 -27.6115V138.219ZM502.469 153.007C492.88 153.007 479.281 151.092 465.188 143.116L546.868 -1.20427C530.614 -10.403 514.54 -12.8234 502.469 -12.8234V153.007ZM578.63 1013.22C596.599 1002.48 619.042 1002.61 636.89 1013.54L550.26 1154.94C585.013 1176.24 628.711 1176.48 663.696 1155.57L578.63 1013.22ZM462.595 141.562C462.942 141.781 473.126 148.699 486.392 153.044L538.003 -4.55089C543.404 -2.78206 547.342 -0.766312 549.339 0.327965C551.106 1.2964 552.387 2.13824 551.298 1.44915L462.595 141.562ZM547.255 184.422C584.643 206.246 631.812 204.864 667.9 180.573L575.301 43.0039C592.172 31.6475 613.471 31.0583 630.854 41.2049L547.255 184.422ZM473.641 148.342C482.779 151.377 492.505 153.007 502.469 153.007V-12.8234C510.603 -12.8234 518.511 -11.4929 525.911 -9.03507L473.641 148.342Z" fill="#CEC9FF" mask="url(#path-2-inside-1_24_555)"/>
<path d="M400.502 26.1095L400.112 26.0977H399.723H393.633C379.311 26.0977 364.981 26.9309 350.551 28.7064C346.924 29.1527 343.599 29.3928 340.487 29.3928H338.828L337.182 29.6044C318.92 31.9532 300.739 36.1586 283.1 42.1617C59.4996 114.68 -16.6785 353.753 48.9926 557.294L49.1172 557.68L49.2539 558.062C85.9798 660.765 145.143 753.936 222.056 830.542L222.252 830.737L222.452 830.928C331.666 935.154 451.09 1027.19 579.376 1105.93L579.385 1105.94L579.395 1105.94L580.039 1106.34C580.04 1106.34 580.04 1106.34 580.041 1106.34C596.712 1116.55 617.673 1116.67 634.455 1106.64L634.638 1106.53L634.821 1106.41C762.625 1027.14 881.364 935.116 989.574 831.441L989.724 831.297L989.871 831.151C1067.37 754.48 1126.5 660.688 1162.67 557.941L1162.8 557.559L1162.92 557.172C1227.43 353.83 1151.42 114.625 929.817 43.2715C893.744 31.3114 856.14 26.1062 818.889 26.0978C743.191 25.5861 669.616 48.2348 607.132 90.2932L621.353 111.421L607.132 90.2932C605.833 91.1673 603.677 91.2738 602.231 90.4996C601.062 89.774 599.485 88.6431 596.919 86.8017C595.866 86.0459 594.646 85.1705 593.219 84.1543C589.005 81.1544 583.184 77.0963 577.341 74.0132L576.552 73.5969L575.737 73.2358L555.627 64.3351C544.269 58.2509 532.779 53.7693 521.436 50.0091C521.404 49.9891 521.37 49.968 521.334 49.9458C521.179 49.8487 521.015 49.7445 520.807 49.6128L520.708 49.7687L520.806 49.6128C520.148 49.1959 519.476 48.7935 518.79 48.4057L518.79 48.4056C514.264 45.8437 509.705 44.7116 505.726 44.3347C471.697 33.2652 436.613 27.196 400.502 26.1095Z" stroke="#BDB6FD" stroke-width="51.8221"/>
</svg>
