<svg width="1165" height="1090" viewBox="0 0 1165 1090" fill="none" xmlns="http://www.w3.org/2000/svg">
<g clip-path="url(#clip0_448_342)">
<path fill-rule="evenodd" clip-rule="evenodd" d="M901.801 17.6542C1131.6 91.2586 1207.01 336.591 1142.08 540.056L1141.83 540.794L1141.57 541.525C1105.54 643.272 1046.62 736.168 969.365 812.138L969.076 812.417L968.787 812.693C863.431 913.02 747.825 1002.07 623.406 1078.77L623.056 1078.99L622.702 1079.2C598.598 1093.51 568.492 1093.35 544.548 1078.77L544.545 1078.77L543.927 1078.39L543.908 1078.38L543.89 1078.37C418.97 1002.17 302.685 913.092 196.353 812.236L195.968 811.871L195.591 811.497C118.973 735.652 60.0492 643.419 23.4721 541.757L23.2092 541.026L22.9694 540.288C-43.2044 336.441 32.5381 91.3603 264.049 16.63C302.179 3.76553 342.324 0.00810428 378.241 0.00810428C418.606 0.00810428 458.633 7.0481 496.066 19.4049C527.543 29.7952 554.943 43.6751 580.632 58.5638C642.39 20.1489 713.906 -0.470258 787.431 0.00814076C825.501 0.0242111 864.3 5.30969 901.801 17.6542Z" fill="#BDB6FD"/>
<path fill-rule="evenodd" clip-rule="evenodd" d="M1094.94 532.892C1061.38 627.628 1006.53 714.089 934.682 784.734C865.363 850.743 618.576 1040.44 584.425 1040.44C550.273 1040.44 301.05 850.507 231.155 784.21C159.789 713.565 104.881 627.628 70.7965 532.892C10.616 347.507 81.4481 135.414 280.151 71.4722C341.516 50.6646 420.153 54.2495 480.734 74.2475C511.818 84.508 538.971 98.929 566.622 115.514C576.244 121.097 588.688 120.718 597.931 114.534C653.978 77.039 719.894 56.905 787.639 57.3765C821.244 57.3765 854.796 62.0458 886.698 72.5718C1083.27 135.414 1154.1 347.507 1094.94 532.892Z" fill="#CEC9FF"/>
<path d="M568.594 185.55C576.677 190.237 587.129 189.918 594.893 184.726C641.969 153.244 697.335 136.339 754.237 136.735C782.464 136.735 810.646 140.655 837.441 149.493C1002.55 202.258 1062.04 380.338 1012.35 535.994C984.169 615.536 938.091 688.131 877.746 747.447C819.708 802.693 587.79 951.36 583.461 951.36C579.132 951.36 345.737 802.871 286.82 747.009C226.877 687.692 180.757 615.536 152.129 535.994C101.579 380.338 161.075 202.258 327.974 148.57C354.203 139.68 383.045 136.735 410.686 136.735C466.909 136.735 521.275 157.176 568.594 185.55Z" fill="#EBEBEB"/>
</g>
<defs>
<clipPath id="clip0_448_342">
<rect width="1165" height="1090" fill="white"/>
</clipPath>
</defs>
</svg>
