<svg width="32" height="32" viewBox="0 0 32 32" fill="none" xmlns="http://www.w3.org/2000/svg">
<path d="M23.0448 0.411774C28.2601 0.411774 31.7638 4.07117 31.7638 9.51631V22.0828C31.7638 27.528 28.2601 31.1874 23.0432 31.1874H9.70726C4.49191 31.1874 0.988281 27.528 0.988281 22.0828L0.988281 9.51631C0.988281 4.07117 4.49191 0.411774 9.70726 0.411774L23.0448 0.411774ZM24.7417 16.646C23.0922 15.617 21.8188 17.062 21.4752 17.5242C21.1441 17.9704 20.8594 18.4627 20.5592 18.9549C19.8258 20.1698 18.9855 21.5704 17.531 22.385C15.4173 23.5554 13.8127 22.4772 12.6584 21.6927C12.2252 21.4005 11.8043 21.1242 11.3849 20.94C10.3513 20.4937 9.42134 21.0019 8.0411 22.7551C7.31694 23.6713 6.59897 24.5797 5.87171 25.4848C5.4369 26.0264 5.54058 26.8616 6.12702 27.2237C7.06317 27.8002 8.20512 28.1098 9.49562 28.1098H22.464C23.1959 28.1098 23.9294 28.0098 24.6288 27.7811C26.204 27.2666 27.4542 26.0883 28.1072 24.532C28.6581 23.2235 28.9258 21.6355 28.4105 20.3143C28.2387 19.876 27.9819 19.4679 27.6213 19.109C26.6759 18.1705 25.7924 17.2939 24.7417 16.646ZM10.9886 6.56689C8.86713 6.56689 7.14338 8.29299 7.14338 10.4138C7.14338 12.5347 8.86713 14.2608 10.9886 14.2608C13.1084 14.2608 14.8337 12.5347 14.8337 10.4138C14.8337 8.29299 13.1084 6.56689 10.9886 6.56689Z" fill="#D31B11"/>
</svg>
