<svg width="28" height="27" viewBox="0 0 28 27" fill="none" xmlns="http://www.w3.org/2000/svg">
<path d="M13.9072 24.4282C12.3977 25.9377 10.579 26.6925 8.45113 26.6925C6.32328 26.6925 4.5046 25.9377 2.9951 24.4282C1.48559 22.9187 0.730842 21.1 0.730842 18.9722C0.730842 16.8443 1.48559 15.0257 2.9951 13.5162L6.26871 10.2426C6.57789 9.93338 6.94163 9.77879 7.35992 9.77879C7.77822 9.77879 8.14195 9.93338 8.45113 10.2426C8.7603 10.5517 8.91489 10.9155 8.91489 11.3338C8.91489 11.7521 8.7603 12.1158 8.45113 12.425L5.17751 15.6986C4.26817 16.6079 3.8135 17.6991 3.8135 18.9722C3.8135 20.2453 4.26817 21.3365 5.17751 22.2458C6.08685 23.1552 7.17805 23.6098 8.45113 23.6098C9.7242 23.6098 10.8154 23.1552 11.7247 22.2458L14.9984 18.9722C15.3075 18.663 15.6713 18.5084 16.0896 18.5084C16.5079 18.5084 16.8716 18.663 17.1808 18.9722C17.49 19.2814 17.6445 19.6451 17.6445 20.0634C17.6445 20.4817 17.49 20.8454 17.1808 21.1546L13.9072 24.4282ZM11.7247 17.881C11.4156 18.1902 11.0518 18.3448 10.6335 18.3448C10.2152 18.3448 9.85151 18.1902 9.54233 17.881C9.23316 17.5718 9.07857 17.2081 9.07857 16.7898C9.07857 16.3715 9.23316 16.0078 9.54233 15.6986L16.0896 9.15135C16.3987 8.84217 16.7625 8.68759 17.1808 8.68759C17.5991 8.68759 17.9628 8.84217 18.272 9.15135C18.5812 9.46052 18.7358 9.82426 18.7358 10.2426C18.7358 10.6608 18.5812 11.0246 18.272 11.3338L11.7247 17.881ZM21.5456 16.7898C21.2364 17.099 20.8727 17.2535 20.4544 17.2535C20.0361 17.2536 19.6724 17.099 19.3632 16.7898C19.054 16.4806 18.8994 16.1169 18.8994 15.6986C18.8994 15.2803 19.054 14.9166 19.3632 14.6074L22.6368 11.3338C23.5462 10.4244 24.0008 9.33322 24.0008 8.06014C24.0008 6.78707 23.5462 5.69586 22.6368 4.78653C21.7275 3.87719 20.6363 3.42252 19.3632 3.42252C18.0901 3.42252 16.9989 3.87719 16.0896 4.78653L12.816 8.06014C12.5068 8.36932 12.143 8.5239 11.7247 8.5239C11.3065 8.52391 10.9427 8.36932 10.6335 8.06014C10.3244 7.75097 10.1698 7.38723 10.1698 6.96894C10.1698 6.55064 10.3244 6.18691 10.6335 5.87773L13.9072 2.60411C15.4167 1.09461 17.2353 0.339863 19.3632 0.339864C21.491 0.339863 23.3097 1.09461 24.8192 2.60411C26.3287 4.11362 27.0835 5.93229 27.0835 8.06014C27.0835 10.188 26.3287 12.0067 24.8192 13.5162L21.5456 16.7898Z" fill="#4E4604"/>
</svg>
