<svg width="28" height="27" viewBox="0 0 28 27" fill="none" xmlns="http://www.w3.org/2000/svg">
<path d="M13.9072 24.4289C12.3977 25.9384 10.579 26.6932 8.45113 26.6932C6.32328 26.6932 4.5046 25.9384 2.9951 24.4289C1.48559 22.9194 0.730842 21.1008 0.730842 18.9729C0.730842 16.845 1.48559 15.0264 2.9951 13.5169L6.26872 10.2433C6.57789 9.93408 6.94163 9.77949 7.35993 9.77949C7.77822 9.77949 8.14196 9.93408 8.45113 10.2433C8.76031 10.5524 8.91489 10.9162 8.9149 11.3345C8.91489 11.7528 8.76031 12.1165 8.45113 12.4257L5.17751 15.6993C4.26817 16.6086 3.8135 17.6998 3.8135 18.9729C3.8135 20.246 4.26817 21.3372 5.17751 22.2465C6.08685 23.1559 7.17806 23.6105 8.45113 23.6105C9.72421 23.6105 10.8154 23.1559 11.7248 22.2465L14.9984 18.9729C15.3075 18.6637 15.6713 18.5091 16.0896 18.5091C16.5079 18.5091 16.8716 18.6637 17.1808 18.9729C17.49 19.2821 17.6445 19.6458 17.6446 20.0641C17.6445 20.4824 17.49 20.8461 17.1808 21.1553L13.9072 24.4289ZM11.7248 17.8817C11.4156 18.1909 11.0518 18.3455 10.6335 18.3455C10.2152 18.3455 9.85151 18.1909 9.54234 17.8817C9.23316 17.5725 9.07857 17.2088 9.07857 16.7905C9.07857 16.3722 9.23316 16.0085 9.54234 15.6993L16.0896 9.15205C16.3988 8.84288 16.7625 8.68829 17.1808 8.68829C17.5991 8.68829 17.9628 8.84288 18.272 9.15205C18.5812 9.46123 18.7358 9.82496 18.7358 10.2433C18.7358 10.6616 18.5812 11.0253 18.272 11.3345L11.7248 17.8817ZM21.5456 16.7905C21.2364 17.0997 20.8727 17.2543 20.4544 17.2543C20.0361 17.2543 19.6724 17.0997 19.3632 16.7905C19.054 16.4813 18.8994 16.1176 18.8994 15.6993C18.8994 15.281 19.054 14.9173 19.3632 14.6081L22.6368 11.3345C23.5462 10.4251 24.0008 9.33392 24.0008 8.06084C24.0008 6.78777 23.5462 5.69657 22.6368 4.78723C21.7275 3.87789 20.6363 3.42322 19.3632 3.42322C18.0901 3.42322 16.9989 3.87789 16.0896 4.78723L12.816 8.06085C12.5068 8.37002 12.143 8.52461 11.7248 8.52461C11.3065 8.52461 10.9427 8.37002 10.6335 8.06085C10.3244 7.75167 10.1698 7.38794 10.1698 6.96964C10.1698 6.55134 10.3244 6.18761 10.6335 5.87844L13.9072 2.60482C15.4167 1.09532 17.2353 0.340567 19.3632 0.340566C21.4911 0.340567 23.3097 1.09532 24.8192 2.60482C26.3287 4.11432 27.0835 5.93299 27.0835 8.06084C27.0835 10.1887 26.3287 12.0074 24.8192 13.5169L21.5456 16.7905Z" fill="#804D08"/>
</svg>
