<svg width="27" height="27" viewBox="0 0 27 27" fill="none" xmlns="http://www.w3.org/2000/svg">
<path d="M13.6245 24.1858C12.1183 25.692 10.3037 26.445 8.18063 26.445C6.05754 26.445 4.24293 25.692 2.7368 24.1858C1.23067 22.6797 0.47761 20.8651 0.47761 18.742C0.47761 16.6189 1.23067 14.8043 2.7368 13.2982L6.0031 10.0319C6.31158 9.72341 6.67451 9.56916 7.09187 9.56916C7.50923 9.56916 7.87215 9.72341 8.18063 10.0319C8.48912 10.3404 8.64336 10.7033 8.64336 11.1207C8.64336 11.538 8.48911 11.9009 8.18063 12.2094L4.91433 15.4757C4.00703 16.383 3.55338 17.4718 3.55338 18.742C3.55338 20.0122 4.00703 21.101 4.91433 22.0083C5.82164 22.9156 6.9104 23.3693 8.18063 23.3693C9.45086 23.3693 10.5396 22.9156 11.4469 22.0083L14.7132 18.742C15.0217 18.4335 15.3846 18.2793 15.802 18.2793C16.2194 18.2793 16.5823 18.4335 16.8908 18.742C17.1992 19.0505 17.3535 19.4134 17.3535 19.8308C17.3535 20.2481 17.1992 20.6111 16.8908 20.9195L13.6245 24.1858ZM11.4469 17.6532C11.1384 17.9617 10.7755 18.116 10.3582 18.116C9.9408 18.116 9.57788 17.9617 9.2694 17.6532C8.96091 17.3448 8.80667 16.9818 8.80667 16.5645C8.80667 16.1471 8.96091 15.7842 9.2694 15.4757L15.802 8.94312C16.1105 8.63464 16.4734 8.4804 16.8908 8.4804C17.3081 8.4804 17.671 8.63464 17.9795 8.94313C18.288 9.25161 18.4423 9.61453 18.4423 10.0319C18.4423 10.4492 18.288 10.8122 17.9795 11.1207L11.4469 17.6532ZM21.2458 16.5645C20.9373 16.873 20.5744 17.0272 20.1571 17.0272C19.7397 17.0272 19.3768 16.873 19.0683 16.5645C18.7598 16.256 18.6056 15.8931 18.6056 15.4757C18.6056 15.0584 18.7598 14.6954 19.0683 14.3869L22.3346 11.1207C23.2419 10.2134 23.6956 9.12459 23.6956 7.85436C23.6956 6.58414 23.2419 5.49537 22.3346 4.58807C21.4273 3.68076 20.3385 3.22711 19.0683 3.22711C17.7981 3.22711 16.7093 3.68076 15.802 4.58807L12.5357 7.85436C12.2272 8.16284 11.8643 8.31708 11.4469 8.31709C11.0296 8.31709 10.6666 8.16284 10.3582 7.85436C10.0497 7.54588 9.89544 7.18296 9.89544 6.7656C9.89544 6.34824 10.0497 5.98532 10.3582 5.67683L13.6245 2.41054C15.1306 0.904415 16.9452 0.151352 19.0683 0.151352C21.1914 0.151352 23.006 0.904415 24.5121 2.41054C26.0183 3.91666 26.7713 5.73127 26.7713 7.85436C26.7713 9.97745 26.0183 11.7921 24.5121 13.2982L21.2458 16.5645Z" fill="#077506"/>
</svg>
