<svg width="29" height="32" viewBox="0 0 29 32" fill="none" xmlns="http://www.w3.org/2000/svg">
<path d="M20.9075 0.952148C25.6746 0.952148 28.3289 3.6991 28.3289 8.40595V24.3475C28.3289 29.1315 25.6746 31.8168 20.9075 31.8168H7.97372C3.2823 31.8168 0.550781 29.1315 0.550781 24.3475V8.40595C0.550781 3.6991 3.2823 0.952148 7.97372 0.952148H20.9075ZM8.39039 22.1561C7.92742 22.1098 7.47989 22.3259 7.23297 22.7271C6.98605 23.1129 6.98605 23.6222 7.23297 24.0234C7.47989 24.4092 7.92742 24.6407 8.39039 24.579H20.4893C21.1051 24.5173 21.5696 23.991 21.5696 23.3753C21.5696 22.7426 21.1051 22.2179 20.4893 22.1561H8.39039ZM20.4893 15.1175H8.39039C7.72526 15.1175 7.18667 15.6591 7.18667 16.3227C7.18667 16.9863 7.72526 17.5264 8.39039 17.5264H20.4893C21.1529 17.5264 21.693 16.9863 21.693 16.3227C21.693 15.6591 21.1529 15.1175 20.4893 15.1175ZM13.0031 8.12817H8.39039V8.1436C7.72526 8.1436 7.18667 8.68373 7.18667 9.34732C7.18667 10.0109 7.72526 10.551 8.39039 10.551H13.0031C13.6682 10.551 14.2084 10.0109 14.2084 9.33035C14.2084 8.6683 13.6682 8.12817 13.0031 8.12817Z" fill="white" fill-opacity="0.8"/>
</svg>
