<svg width="22" height="32" viewBox="0 0 22 32" fill="none" xmlns="http://www.w3.org/2000/svg">
<path d="M5.48331 1.77183C8.85505 -0.1873 12.9995 -0.153058 16.3396 1.86152C19.6468 3.91714 21.6569 7.5858 21.6383 11.5323C21.5612 15.4528 19.4058 19.1382 16.7116 21.9871C15.1566 23.6388 13.417 25.0994 11.5285 26.3389C11.334 26.4514 11.1209 26.5267 10.8998 26.5611C10.687 26.552 10.4798 26.4892 10.2968 26.3781C7.41359 24.5156 4.88409 22.1382 2.83005 19.3603C1.11128 17.0415 0.134801 14.2399 0.0332031 11.3362L0.040898 10.9138C0.181233 7.12355 2.23199 3.66098 5.48331 1.77183ZM12.2359 8.09599C10.8652 7.51336 9.28494 7.8299 8.23288 8.89781C7.18082 9.96572 6.86453 11.5744 7.4317 12.9726C7.99887 14.3709 9.33762 15.2829 10.8229 15.2829C11.7959 15.2899 12.7312 14.9002 13.4204 14.2005C14.1097 13.5009 14.4956 12.5495 14.4921 11.5584C14.4973 10.0455 13.6066 8.67862 12.2359 8.09599Z" fill="#1179AF"/>
<path d="M10.8353 31.1897C15.0968 31.1897 18.5514 30.4988 18.5514 29.6465C18.5514 28.7942 15.0968 28.1033 10.8353 28.1033C6.57378 28.1033 3.11914 28.7942 3.11914 29.6465C3.11914 30.4988 6.57378 31.1897 10.8353 31.1897Z" fill="#1179AF"/>
</svg>
