<?xml version="1.0" encoding="utf-8"?>
<!-- Generator: Adobe Illustrator 26.0.1, SVG Export Plug-In . SVG Version: 6.00 Build 0)  -->
<svg version="1.1" id="Layer_1" xmlns="http://www.w3.org/2000/svg" xmlns:xlink="http://www.w3.org/1999/xlink" x="0px" y="0px"
	 viewBox="0 0 194.1 51" style="enable-background:new 0 0 194.1 51;" xml:space="preserve">
<style type="text/css">
	.st0{fill:#FFFFFF;stroke:#69D9D8;stroke-miterlimit:10;}
	.st1{fill:#FFFFFF;stroke:#56D3D2;stroke-miterlimit:10;}
	.st2{fill:#56D3D2;}
	.st3{fill:#FFFFFF;}
	.st4{fill:#1C4A5A;}
</style>
<path class="st0" d="M22.7,48.7L4.2,38.4c-4.3-2.4-4.3-6.3,0-8.7l18.5-10.3c4.3-2.4,11.3-2.4,15.5,0l18.4,10.3
	c4.3,2.4,4.3,6.3,0,8.7L38.2,48.7C33.9,51.1,27,51.1,22.7,48.7z"/>
<path class="st0" d="M22.7,45.3L4.2,35c-4.3-2.4-4.3-6.3,0-8.7L22.7,16c4.3-2.4,11.3-2.4,15.5,0l18.5,10.3c4.3,2.4,4.3,6.3,0,8.7
	L38.2,45.3C33.9,47.7,27,47.7,22.7,45.3z"/>
<path class="st0" d="M22.7,41.9L4.2,31.5c-4.3-2.4-4.3-6.3,0-8.7l18.5-10.3c4.3-2.4,11.3-2.4,15.5,0l18.5,10.3
	c4.3,2.4,4.3,6.3,0,8.7L38.2,41.8C33.9,44.2,27,44.2,22.7,41.9z"/>
<path class="st0" d="M22.7,38.4L4.2,28.1c-4.3-2.4-4.3-6.3,0-8.7L22.7,9.2c4.3-2.4,11.3-2.4,15.5,0l18.5,10.3c4.3,2.4,4.3,6.3,0,8.7
	L38.2,38.4C33.9,40.8,27,40.8,22.7,38.4z"/>
<path class="st0" d="M22.7,35L4.2,24.7c-4.3-2.4-4.3-6.3,0-8.7L22.7,5.7c4.3-2.4,11.3-2.4,15.5,0L56.7,16c4.3,2.4,4.3,6.3,0,8.7
	L38.2,35C33.9,37.4,27,37.4,22.7,35z"/>
<path class="st1" d="M22.7,31.6L4.2,21.3c-4.3-2.4-4.3-6.3,0-8.7L22.7,2.3c4.3-2.4,11.3-2.4,15.5,0l18.5,10.3c4.3,2.4,4.3,6.3,0,8.7
	L38.2,31.6C33.9,34,27,34,22.7,31.6z"/>
<path class="st2" d="M22.7,31.6L4.2,21.3c-4.3-2.4-4.3-6.3,0-8.7L22.7,2.3c4.3-2.4,11.3-2.4,15.5,0l18.5,10.3c4.3,2.4,4.3,6.3,0,8.7
	L38.2,31.6C33.9,34,27,34,22.7,31.6z"/>
<path class="st2" d="M22.7,31.6L4.2,21.3c-4.3-2.4-4.3-6.3,0-8.7L22.7,2.3c4.3-2.4,11.3-2.4,15.5,0l18.5,10.3c4.3,2.4,4.3,6.3,0,8.7
	L38.2,31.6C33.9,34,27,34,22.7,31.6z"/>
<path class="st3" d="M30.1,24.2c-1.3,0.2-2.6,0.2-4.1-0.2c-1.4-0.3-2.8-0.9-4.1-1.9c-1.9-1.4-2.9-2.8-3.1-4.2
	c-0.2-1.4,0.5-2.7,2.2-3.8l4.2,2.8c-0.6,0.5-0.9,0.9-0.9,1.5c0,0.5,0.3,1,0.9,1.4c0.5,0.4,1.1,0.5,1.7,0.6c0.6,0,1.1-0.1,1.7-0.5
	c0.4-0.3,0.7-0.6,0.7-1s-0.1-0.8-0.3-1.2c-0.2-0.4-0.6-0.9-1.1-1.6c-0.7-0.9-1.2-1.7-1.5-2.3c-0.3-0.6-0.4-1.3-0.2-2
	c0.2-0.7,0.8-1.4,1.8-2c0.9-0.6,2-0.9,3.1-1c1.1-0.1,2.3,0,3.5,0.2c1.2,0.3,2.4,0.8,3.5,1.4c1.9,1.1,3,2.3,3.4,3.5
	c0.4,1.3-0.1,2.4-1.4,3.5l-4.7-2.8c0.4-0.4,0.6-0.8,0.6-1.2c0-0.4-0.3-0.8-0.9-1.1c-0.5-0.3-1-0.4-1.5-0.5c-0.5,0-1,0.1-1.5,0.4
	c-0.4,0.2-0.6,0.5-0.6,0.8c0,0.3,0.1,0.7,0.3,1c0.2,0.4,0.6,0.8,1.1,1.5c0.8,0.9,1.3,1.8,1.7,2.4c0.4,0.7,0.5,1.5,0.4,2.3
	c-0.1,0.8-0.8,1.7-1.9,2.4C32.5,23.5,31.3,24,30.1,24.2z"/>
<path class="st4" d="M84.7,36.2c-1.5,0-2.9-0.2-4.1-0.8s-2.2-1.2-2.9-2.2c-0.7-1-1.1-2.2-1.1-3.5h5.5c0.1,0.8,0.3,1.4,0.8,1.8
	c0.5,0.4,1.1,0.6,1.8,0.6c0.8,0,1.4-0.2,1.8-0.5c0.4-0.4,0.7-0.9,0.7-1.5c0-0.5-0.2-1-0.5-1.3c-0.3-0.3-0.8-0.6-1.3-0.8
	c-0.5-0.2-1.2-0.5-2.2-0.8c-1.4-0.4-2.5-0.8-3.3-1.3s-1.6-1-2.2-1.9c-0.6-0.8-0.9-1.9-0.9-3.2c0-2,0.7-3.5,2.1-4.6
	c1.4-1.1,3.3-1.7,5.5-1.7c2.3,0,4.2,0.6,5.6,1.7c1.4,1.1,2.2,2.6,2.3,4.6h-5.6c0-0.7-0.3-1.2-0.8-1.6c-0.5-0.4-1.1-0.6-1.8-0.6
	c-0.6,0-1.1,0.2-1.5,0.5c-0.4,0.3-0.6,0.8-0.6,1.4c0,0.7,0.3,1.2,1,1.6c0.6,0.4,1.6,0.8,3,1.2c1.4,0.5,2.5,0.9,3.3,1.3
	c0.9,0.4,1.6,1,2.2,1.8c0.6,0.8,0.9,1.8,0.9,3.1c0,1.2-0.3,2.3-0.9,3.3c-0.6,1-1.5,1.8-2.6,2.3C87.6,35.9,86.2,36.2,84.7,36.2z
	 M110.6,14.9V19h-5.6v17h-5.1V19h-5.6v-4.1H110.6z M126.3,32.3h-7.9l-1.3,3.7h-5.4l7.6-21.1h5.9L133,36h-5.4L126.3,32.3z M125,28.3
	l-2.6-7.7l-2.6,7.7H125z M134.5,25.4c0-2.1,0.5-3.9,1.4-5.6c0.9-1.6,2.1-2.9,3.8-3.8c1.6-0.9,3.4-1.4,5.5-1.4c2.5,0,4.6,0.7,6.4,2
	s3,3.1,3.6,5.4h-5.6c-0.4-0.9-1-1.5-1.8-2c-0.8-0.5-1.6-0.7-2.6-0.7c-1.6,0-2.9,0.6-3.8,1.7c-1,1.1-1.5,2.6-1.5,4.4s0.5,3.3,1.5,4.4
	s2.3,1.6,3.8,1.6c1,0,1.9-0.2,2.6-0.7c0.8-0.5,1.4-1.1,1.8-2h5.6c-0.6,2.3-1.8,4.1-3.6,5.4c-1.8,1.3-3.9,2-6.4,2
	c-2,0-3.9-0.5-5.5-1.4c-1.6-0.9-2.9-2.2-3.8-3.8C134.9,29.4,134.5,27.5,134.5,25.4z M170.4,36l-7.1-9.3V36h-5.1V14.9h5.1v9.2l7-9.2
	h6l-8.2,10.3l8.5,10.7H170.4z M186.7,36.2c-1.5,0-2.9-0.2-4.1-0.8s-2.2-1.2-2.9-2.2c-0.7-1-1.1-2.2-1.1-3.5h5.5
	c0.1,0.8,0.3,1.4,0.8,1.8c0.5,0.4,1.1,0.6,1.8,0.6c0.8,0,1.4-0.2,1.8-0.5c0.4-0.4,0.7-0.9,0.7-1.5c0-0.5-0.2-1-0.5-1.3
	c-0.3-0.3-0.8-0.6-1.3-0.8c-0.5-0.2-1.2-0.5-2.2-0.8c-1.4-0.4-2.5-0.8-3.3-1.3s-1.6-1-2.2-1.9c-0.6-0.8-0.9-1.9-0.9-3.2
	c0-2,0.7-3.5,2.1-4.6c1.4-1.1,3.3-1.7,5.6-1.7c2.3,0,4.2,0.6,5.6,1.7c1.4,1.1,2.2,2.6,2.3,4.6h-5.6c0-0.7-0.3-1.2-0.8-1.6
	c-0.5-0.4-1.1-0.6-1.8-0.6c-0.6,0-1.1,0.2-1.5,0.5c-0.4,0.3-0.6,0.8-0.6,1.4c0,0.7,0.3,1.2,1,1.6c0.6,0.4,1.6,0.8,3,1.2
	c1.4,0.5,2.5,0.9,3.3,1.3c0.9,0.4,1.6,1,2.2,1.8c0.6,0.8,0.9,1.8,0.9,3.1c0,1.2-0.3,2.3-0.9,3.3c-0.6,1-1.5,1.8-2.6,2.3
	C189.7,35.9,188.3,36.2,186.7,36.2z"/>
</svg>
