<svg width="18" height="28" viewBox="0 0 18 28" fill="none" xmlns="http://www.w3.org/2000/svg">
<path d="M6.93547 27.7061C5.31338 27.7815 3.89791 27.2685 2.68907 26.1671C1.48023 25.0657 0.838102 23.7039 0.762678 22.0818C0.687254 20.4597 1.20025 19.0443 2.30167 17.8354C3.40308 16.6266 4.76484 15.9845 6.38693 15.909C6.95221 15.8828 7.47762 15.9261 7.96316 16.039C8.4487 16.1518 8.91895 16.3332 9.37391 16.583L8.78766 3.97487C8.74994 3.16382 9.00644 2.45609 9.55715 1.85167C10.1079 1.24725 10.7887 0.926185 11.5998 0.888473L14.549 0.751339C15.3601 0.713627 16.0678 0.970124 16.6722 1.52083C17.2767 2.07154 17.5977 2.75242 17.6354 3.56346C17.6732 4.37451 17.4167 5.08224 16.8659 5.68666C16.3152 6.29108 15.6344 6.61215 14.8233 6.64986L11.8741 6.78699L12.5597 21.5333C12.6352 23.1554 12.1222 24.5709 11.0207 25.7797C9.91932 26.9885 8.55757 27.6307 6.93547 27.7061Z" fill="#077506"/>
</svg>
