<svg width="32" height="24" viewBox="0 0 32 24" fill="none" xmlns="http://www.w3.org/2000/svg">
<path d="M30.4726 4.63922C29.8585 4.22452 29.0894 4.16511 28.4222 4.47829L26.1701 5.52688C25.3373 5.91383 24.8023 6.73278 24.7727 7.66204L24.4954 16.3867C24.4659 17.316 24.9479 18.1657 25.7543 18.6078L27.9338 19.7957C28.2295 19.9602 28.5487 20.0448 28.8702 20.055C29.2561 20.0673 29.6425 19.9701 29.9918 19.7669C30.631 19.3936 31.0265 18.7237 31.0503 17.9767L31.4153 6.49461C31.439 5.74756 31.0868 5.05392 30.4726 4.63922Z" fill="#1179AF"/>
<path d="M15.7789 22.972L7.11616 22.6966C3.49373 22.5815 1.04401 20.0033 1.15768 16.4275L1.48467 6.14045C1.59839 2.56313 4.20685 0.147287 7.82928 0.262433L16.492 0.537794C20.1144 0.65294 22.5642 3.22956 22.4505 6.80689L22.1235 17.094C22.0098 20.6698 19.4013 23.0871 15.7789 22.972Z" fill="#1179AF"/>
</svg>
